TITLE ""
FILE "LR_black_phrase_S09.mp3" MP3
  TRACK 01 AUDIO
    TITLE "LR_black_phrase_S09_001"
    INDEX 01 00:00:00
  TRACK 02 AUDIO
    TITLE "LR_black_phrase_S09_002"
    INDEX 01 00:00:14
  TRACK 03 AUDIO
    TITLE "LR_black_phrase_S09_003"
    INDEX 01 00:01:20
  TRACK 04 AUDIO
    TITLE "LR_black_phrase_S09_004"
    INDEX 01 00:01:59
  TRACK 05 AUDIO
    TITLE "LR_black_phrase_S09_005"
    INDEX 01 00:04:37
  TRACK 06 AUDIO
    TITLE "LR_black_phrase_S09_006"
    INDEX 01 00:05:35
  TRACK 07 AUDIO
    TITLE "LR_black_phrase_S09_007"
    INDEX 01 00:07:34
  TRACK 08 AUDIO
    TITLE "LR_black_phrase_S09_008"
    INDEX 01 00:07:73
  TRACK 09 AUDIO
    TITLE "LR_black_phrase_S09_009"
    INDEX 01 00:09:45
  TRACK 10 AUDIO
    TITLE "LR_black_phrase_S09_010"
    INDEX 01 00:09:72
  TRACK 11 AUDIO
    TITLE "LR_black_phrase_S09_011"
    INDEX 01 00:11:45
  TRACK 12 AUDIO
    TITLE "LR_black_phrase_S09_012"
    INDEX 01 00:12:45
  TRACK 13 AUDIO
    TITLE "LR_black_phrase_S09_013"
    INDEX 01 00:13:68
  TRACK 14 AUDIO
    TITLE "LR_black_phrase_S09_014"
    INDEX 01 00:14:32
  TRACK 15 AUDIO
    TITLE "LR_black_phrase_S09_015"
    INDEX 01 00:16:58
  TRACK 16 AUDIO
    TITLE "LR_black_phrase_S09_016"
    INDEX 01 00:17:58
  TRACK 17 AUDIO
    TITLE "LR_black_phrase_S09_017"
    INDEX 01 00:19:64
  TRACK 18 AUDIO
    TITLE "LR_black_phrase_S09_018"
    INDEX 01 00:20:27
  TRACK 19 AUDIO
    TITLE "LR_black_phrase_S09_019"
    INDEX 01 00:22:69
  TRACK 20 AUDIO
    TITLE "LR_black_phrase_S09_020"
    INDEX 01 00:23:21
  TRACK 21 AUDIO
    TITLE "LR_black_phrase_S09_021"
    INDEX 01 00:25:63
  TRACK 22 AUDIO
    TITLE "LR_black_phrase_S09_022"
    INDEX 01 00:26:65
  TRACK 23 AUDIO
    TITLE "LR_black_phrase_S09_023"
    INDEX 01 00:28:13
  TRACK 24 AUDIO
    TITLE "LR_black_phrase_S09_024"
    INDEX 01 00:28:50
  TRACK 25 AUDIO
    TITLE "LR_black_phrase_S09_025"
    INDEX 01 00:29:47
  TRACK 26 AUDIO
    TITLE "LR_black_phrase_S09_026"
    INDEX 01 00:30:45
  TRACK 27 AUDIO
    TITLE "LR_black_phrase_S09_027"
    INDEX 01 00:32:20
  TRACK 28 AUDIO
    TITLE "LR_black_phrase_S09_028"
    INDEX 01 00:32:55
  TRACK 29 AUDIO
    TITLE "LR_black_phrase_S09_029"
    INDEX 01 00:34:66
  TRACK 30 AUDIO
    TITLE "LR_black_phrase_S09_030"
    INDEX 01 00:35:11
  TRACK 31 AUDIO
    TITLE "LR_black_phrase_S09_031"
    INDEX 01 00:37:21
  TRACK 32 AUDIO
    TITLE "LR_black_phrase_S09_032"
    INDEX 01 00:38:15
  TRACK 33 AUDIO
    TITLE "LR_black_phrase_S09_033"
    INDEX 01 00:39:22
  TRACK 34 AUDIO
    TITLE "LR_black_phrase_S09_034"
    INDEX 01 00:39:59
  TRACK 35 AUDIO
    TITLE "LR_black_phrase_S09_035"
    INDEX 01 00:42:22
  TRACK 36 AUDIO
    TITLE "LR_black_phrase_S09_036"
    INDEX 01 00:43:20
  TRACK 37 AUDIO
    TITLE "LR_black_phrase_S09_037"
    INDEX 01 00:45:34
  TRACK 38 AUDIO
    TITLE "LR_black_phrase_S09_038"
    INDEX 01 00:45:68
  TRACK 39 AUDIO
    TITLE "LR_black_phrase_S09_039"
    INDEX 01 00:48:33
  TRACK 40 AUDIO
    TITLE "LR_black_phrase_S09_040"
    INDEX 01 00:48:52
  TRACK 41 AUDIO
    TITLE "LR_black_phrase_S09_041"
    INDEX 01 00:51:17
  TRACK 42 AUDIO
    TITLE "LR_black_phrase_S09_042"
    INDEX 01 00:52:17
  TRACK 43 AUDIO
    TITLE "LR_black_phrase_S09_043"
    INDEX 01 00:53:42
  TRACK 44 AUDIO
    TITLE "LR_black_phrase_S09_044"
    INDEX 01 00:54:04
  TRACK 45 AUDIO
    TITLE "LR_black_phrase_S09_045"
    INDEX 01 00:56:21
  TRACK 46 AUDIO
    TITLE "LR_black_phrase_S09_046"
    INDEX 01 00:57:20
  TRACK 47 AUDIO
    TITLE "LR_black_phrase_S09_047"
    INDEX 01 00:59:44
  TRACK 48 AUDIO
    TITLE "LR_black_phrase_S09_048"
    INDEX 01 01:00:11
  TRACK 49 AUDIO
    TITLE "LR_black_phrase_S09_049"
    INDEX 01 01:02:68
  TRACK 50 AUDIO
    TITLE "LR_black_phrase_S09_050"
    INDEX 01 01:03:23
  TRACK 51 AUDIO
    TITLE "LR_black_phrase_S09_051"
    INDEX 01 01:06:05
  TRACK 52 AUDIO
    TITLE "LR_black_phrase_S09_052"
    INDEX 01 01:07:09
  TRACK 53 AUDIO
    TITLE "LR_black_phrase_S09_053"
    INDEX 01 01:08:26
  TRACK 54 AUDIO
    TITLE "LR_black_phrase_S09_054"
    INDEX 01 01:08:65
  TRACK 55 AUDIO
    TITLE "LR_black_phrase_S09_055"
    INDEX 01 01:10:21
  TRACK 56 AUDIO
    TITLE "LR_black_phrase_S09_056"
    INDEX 01 01:11:20
  TRACK 57 AUDIO
    TITLE "LR_black_phrase_S09_057"
    INDEX 01 01:13:17
  TRACK 58 AUDIO
    TITLE "LR_black_phrase_S09_058"
    INDEX 01 01:13:54
  TRACK 59 AUDIO
    TITLE "LR_black_phrase_S09_059"
    INDEX 01 01:15:49
  TRACK 60 AUDIO
    TITLE "LR_black_phrase_S09_060"
    INDEX 01 01:16:04
  TRACK 61 AUDIO
    TITLE "LR_black_phrase_S09_061"
    INDEX 01 01:17:74
  TRACK 62 AUDIO
    TITLE "LR_black_phrase_S09_062"
    INDEX 01 01:19:00
  TRACK 63 AUDIO
    TITLE "LR_black_phrase_S09_063"
    INDEX 01 01:20:11
  TRACK 64 AUDIO
    TITLE "LR_black_phrase_S09_064"
    INDEX 01 01:20:43
  TRACK 65 AUDIO
    TITLE "LR_black_phrase_S09_065"
    INDEX 01 01:22:14
  TRACK 66 AUDIO
    TITLE "LR_black_phrase_S09_066"
    INDEX 01 01:23:14
  TRACK 67 AUDIO
    TITLE "LR_black_phrase_S09_067"
    INDEX 01 01:25:20
  TRACK 68 AUDIO
    TITLE "LR_black_phrase_S09_068"
    INDEX 01 01:25:58
  TRACK 69 AUDIO
    TITLE "LR_black_phrase_S09_069"
    INDEX 01 01:27:54
  TRACK 70 AUDIO
    TITLE "LR_black_phrase_S09_070"
    INDEX 01 01:27:74
  TRACK 71 AUDIO
    TITLE "LR_black_phrase_S09_071"
    INDEX 01 01:29:73
  TRACK 72 AUDIO
    TITLE "LR_black_phrase_S09_072"
    INDEX 01 01:30:70
  TRACK 73 AUDIO
    TITLE "LR_black_phrase_S09_073"
    INDEX 01 01:32:07
  TRACK 74 AUDIO
    TITLE "LR_black_phrase_S09_074"
    INDEX 01 01:32:44
  TRACK 75 AUDIO
    TITLE "LR_black_phrase_S09_075"
    INDEX 01 01:33:55
  TRACK 76 AUDIO
    TITLE "LR_black_phrase_S09_076"
    INDEX 01 01:34:54
  TRACK 77 AUDIO
    TITLE "LR_black_phrase_S09_077"
    INDEX 01 01:36:48
  TRACK 78 AUDIO
    TITLE "LR_black_phrase_S09_078"
    INDEX 01 01:37:08
  TRACK 79 AUDIO
    TITLE "LR_black_phrase_S09_079"
    INDEX 01 01:39:24
  TRACK 80 AUDIO
    TITLE "LR_black_phrase_S09_080"
    INDEX 01 01:39:44
  TRACK 81 AUDIO
    TITLE "LR_black_phrase_S09_081"
    INDEX 01 01:41:62
  TRACK 82 AUDIO
    TITLE "LR_black_phrase_S09_082"
    INDEX 01 01:42:62
  TRACK 83 AUDIO
    TITLE "LR_black_phrase_S09_083"
    INDEX 01 01:44:10
  TRACK 84 AUDIO
    TITLE "LR_black_phrase_S09_084"
    INDEX 01 01:44:49
  TRACK 85 AUDIO
    TITLE "LR_black_phrase_S09_085"
    INDEX 01 01:46:58
  TRACK 86 AUDIO
    TITLE "LR_black_phrase_S09_086"
    INDEX 01 01:47:57
  TRACK 87 AUDIO
    TITLE "LR_black_phrase_S09_087"
    INDEX 01 01:50:10
  TRACK 88 AUDIO
    TITLE "LR_black_phrase_S09_088"
    INDEX 01 01:50:50
  TRACK 89 AUDIO
    TITLE "LR_black_phrase_S09_089"
    INDEX 01 01:53:15
  TRACK 90 AUDIO
    TITLE "LR_black_phrase_S09_090"
    INDEX 01 01:53:40
  TRACK 91 AUDIO
    TITLE "LR_black_phrase_S09_091"
    INDEX 01 01:56:05
  TRACK 92 AUDIO
    TITLE "LR_black_phrase_S09_092"
    INDEX 01 01:57:05
  TRACK 93 AUDIO
    TITLE "LR_black_phrase_S09_093"
    INDEX 01 01:58:18
  TRACK 94 AUDIO
    TITLE "LR_black_phrase_S09_094"
    INDEX 01 01:58:55
  TRACK 95 AUDIO
    TITLE "LR_black_phrase_S09_095"
    INDEX 01 02:00:42
  TRACK 96 AUDIO
    TITLE "LR_black_phrase_S09_096"
    INDEX 01 02:01:42
  TRACK 97 AUDIO
    TITLE "LR_black_phrase_S09_097"
    INDEX 01 02:03:33
  TRACK 98 AUDIO
    TITLE "LR_black_phrase_S09_098"
    INDEX 01 02:03:72
  TRACK 99 AUDIO
    TITLE "LR_black_phrase_S09_099"
    INDEX 01 02:05:41
  TRACK 100 AUDIO
    TITLE "LR_black_phrase_S09_100"
    INDEX 01 02:05:69
  TRACK 101 AUDIO
    TITLE "LR_black_phrase_S09_101"
    INDEX 01 02:07:38
  TRACK 102 AUDIO
    TITLE "LR_black_phrase_S09_102"
    INDEX 01 02:08:40
  TRACK 103 AUDIO
    TITLE "LR_black_phrase_S09_103"
    INDEX 01 02:09:65
  TRACK 104 AUDIO
    TITLE "LR_black_phrase_S09_104"
    INDEX 01 02:10:27
  TRACK 105 AUDIO
    TITLE "LR_black_phrase_S09_105"
    INDEX 01 02:11:71
  TRACK 106 AUDIO
    TITLE "LR_black_phrase_S09_106"
    INDEX 01 02:12:73
  TRACK 107 AUDIO
    TITLE "LR_black_phrase_S09_107"
    INDEX 01 02:15:28
  TRACK 108 AUDIO
    TITLE "LR_black_phrase_S09_108"
    INDEX 01 02:15:61
  TRACK 109 AUDIO
    TITLE "LR_black_phrase_S09_109"
    INDEX 01 02:18:24
  TRACK 110 AUDIO
    TITLE "LR_black_phrase_S09_110"
    INDEX 01 02:18:48
  TRACK 111 AUDIO
    TITLE "LR_black_phrase_S09_111"
    INDEX 01 02:21:09
  TRACK 112 AUDIO
    TITLE "LR_black_phrase_S09_112"
    INDEX 01 02:22:07
  TRACK 113 AUDIO
    TITLE "LR_black_phrase_S09_113"
    INDEX 01 02:23:22
  TRACK 114 AUDIO
    TITLE "LR_black_phrase_S09_114"
    INDEX 01 02:23:55
  TRACK 115 AUDIO
    TITLE "LR_black_phrase_S09_115"
    INDEX 01 02:24:72
  TRACK 116 AUDIO
    TITLE "LR_black_phrase_S09_116"
    INDEX 01 02:25:69
  TRACK 117 AUDIO
    TITLE "LR_black_phrase_S09_117"
    INDEX 01 02:27:55
  TRACK 118 AUDIO
    TITLE "LR_black_phrase_S09_118"
    INDEX 01 02:28:15
  TRACK 119 AUDIO
    TITLE "LR_black_phrase_S09_119"
    INDEX 01 02:30:39
  TRACK 120 AUDIO
    TITLE "LR_black_phrase_S09_120"
    INDEX 01 02:30:59
  TRACK 121 AUDIO
    TITLE "LR_black_phrase_S09_121"
    INDEX 01 02:33:10
  TRACK 122 AUDIO
    TITLE "LR_black_phrase_S09_122"
    INDEX 01 02:34:10
  TRACK 123 AUDIO
    TITLE "LR_black_phrase_S09_123"
    INDEX 01 02:35:17
  TRACK 124 AUDIO
    TITLE "LR_black_phrase_S09_124"
    INDEX 01 02:35:56
  TRACK 125 AUDIO
    TITLE "LR_black_phrase_S09_125"
    INDEX 01 02:38:11
  TRACK 126 AUDIO
    TITLE "LR_black_phrase_S09_126"
    INDEX 01 02:39:09
  TRACK 127 AUDIO
    TITLE "LR_black_phrase_S09_127"
    INDEX 01 02:41:04
  TRACK 128 AUDIO
    TITLE "LR_black_phrase_S09_128"
    INDEX 01 02:41:43
  TRACK 129 AUDIO
    TITLE "LR_black_phrase_S09_129"
    INDEX 01 02:43:38
  TRACK 130 AUDIO
    TITLE "LR_black_phrase_S09_130"
    INDEX 01 02:43:67
  TRACK 131 AUDIO
    TITLE "LR_black_phrase_S09_131"
    INDEX 01 02:45:62
  TRACK 132 AUDIO
    TITLE "LR_black_phrase_S09_132"
    INDEX 01 02:46:68
  TRACK 133 AUDIO
    TITLE "LR_black_phrase_S09_133"
    INDEX 01 02:47:73
  TRACK 134 AUDIO
    TITLE "LR_black_phrase_S09_134"
    INDEX 01 02:48:39
  TRACK 135 AUDIO
    TITLE "LR_black_phrase_S09_135"
    INDEX 01 02:51:08
  TRACK 136 AUDIO
    TITLE "LR_black_phrase_S09_136"
    INDEX 01 02:52:08
  TRACK 137 AUDIO
    TITLE "LR_black_phrase_S09_137"
    INDEX 01 02:53:58
  TRACK 138 AUDIO
    TITLE "LR_black_phrase_S09_138"
    INDEX 01 02:54:24
  TRACK 139 AUDIO
    TITLE "LR_black_phrase_S09_139"
    INDEX 01 02:56:03
  TRACK 140 AUDIO
    TITLE "LR_black_phrase_S09_140"
    INDEX 01 02:56:37
  TRACK 141 AUDIO
    TITLE "LR_black_phrase_S09_141"
    INDEX 01 02:58:16
  TRACK 142 AUDIO
    TITLE "LR_black_phrase_S09_142"
    INDEX 01 02:59:17
  TRACK 143 AUDIO
    TITLE "LR_black_phrase_S09_143"
    INDEX 01 03:00:19
  TRACK 144 AUDIO
    TITLE "LR_black_phrase_S09_144"
    INDEX 01 03:00:58
  TRACK 145 AUDIO
    TITLE "LR_black_phrase_S09_145"
    INDEX 01 03:01:63
  TRACK 146 AUDIO
    TITLE "LR_black_phrase_S09_146"
    INDEX 01 03:02:57
  TRACK 147 AUDIO
    TITLE "LR_black_phrase_S09_147"
    INDEX 01 03:04:68
  TRACK 148 AUDIO
    TITLE "LR_black_phrase_S09_148"
    INDEX 01 03:05:28
  TRACK 149 AUDIO
    TITLE "LR_black_phrase_S09_149"
    INDEX 01 03:08:12
  TRACK 150 AUDIO
    TITLE "LR_black_phrase_S09_150"
    INDEX 01 03:08:32
  TRACK 151 AUDIO
    TITLE "LR_black_phrase_S09_151"
    INDEX 01 03:11:17
  TRACK 152 AUDIO
    TITLE "LR_black_phrase_S09_152"
    INDEX 01 03:12:12
  TRACK 153 AUDIO
    TITLE "LR_black_phrase_S09_153"
    INDEX 01 03:13:33
  TRACK 154 AUDIO
    TITLE "LR_black_phrase_S09_154"
    INDEX 01 03:13:70
  TRACK 155 AUDIO
    TITLE "LR_black_phrase_S09_155"
    INDEX 01 03:15:15
  TRACK 156 AUDIO
    TITLE "LR_black_phrase_S09_156"
    INDEX 01 03:16:12
  TRACK 157 AUDIO
    TITLE "LR_black_phrase_S09_157"
    INDEX 01 03:18:19
  TRACK 158 AUDIO
    TITLE "LR_black_phrase_S09_158"
    INDEX 01 03:18:52
  TRACK 159 AUDIO
    TITLE "LR_black_phrase_S09_159"
    INDEX 01 03:20:43
  TRACK 160 AUDIO
    TITLE "LR_black_phrase_S09_160"
    INDEX 01 03:20:67
  TRACK 161 AUDIO
    TITLE "LR_black_phrase_S09_161"
    INDEX 01 03:22:58
  TRACK 162 AUDIO
    TITLE "LR_black_phrase_S09_162"
    INDEX 01 03:23:57
  TRACK 163 AUDIO
    TITLE "LR_black_phrase_S09_163"
    INDEX 01 03:25:09
  TRACK 164 AUDIO
    TITLE "LR_black_phrase_S09_164"
    INDEX 01 03:25:50
  TRACK 165 AUDIO
    TITLE "LR_black_phrase_S09_165"
    INDEX 01 03:29:19
  TRACK 166 AUDIO
    TITLE "LR_black_phrase_S09_166"
    INDEX 01 03:30:16
  TRACK 167 AUDIO
    TITLE "LR_black_phrase_S09_167"
    INDEX 01 03:31:74
  TRACK 168 AUDIO
    TITLE "LR_black_phrase_S09_168"
    INDEX 01 03:32:40
  TRACK 169 AUDIO
    TITLE "LR_black_phrase_S09_169"
    INDEX 01 03:34:31
  TRACK 170 AUDIO
    TITLE "LR_black_phrase_S09_170"
    INDEX 01 03:34:63
  TRACK 171 AUDIO
    TITLE "LR_black_phrase_S09_171"
    INDEX 01 03:36:54
  TRACK 172 AUDIO
    TITLE "LR_black_phrase_S09_172"
    INDEX 01 03:37:59
  TRACK 173 AUDIO
    TITLE "LR_black_phrase_S09_173"
    INDEX 01 03:39:05
  TRACK 174 AUDIO
    TITLE "LR_black_phrase_S09_174"
    INDEX 01 03:39:44
  TRACK 175 AUDIO
    TITLE "LR_black_phrase_S09_175"
    INDEX 01 03:43:34
  TRACK 176 AUDIO
    TITLE "LR_black_phrase_S09_176"
    INDEX 01 03:44:32
  TRACK 177 AUDIO
    TITLE "LR_black_phrase_S09_177"
    INDEX 01 03:46:60
  TRACK 178 AUDIO
    TITLE "LR_black_phrase_S09_178"
    INDEX 01 03:47:24
  TRACK 179 AUDIO
    TITLE "LR_black_phrase_S09_179"
    INDEX 01 03:49:64
  TRACK 180 AUDIO
    TITLE "LR_black_phrase_S09_180"
    INDEX 01 03:50:19
  TRACK 181 AUDIO
    TITLE "LR_black_phrase_S09_181"
    INDEX 01 03:52:59
  TRACK 182 AUDIO
    TITLE "LR_black_phrase_S09_182"
    INDEX 01 03:53:58
  TRACK 183 AUDIO
    TITLE "LR_black_phrase_S09_183"
    INDEX 01 03:54:73
  TRACK 184 AUDIO
    TITLE "LR_black_phrase_S09_184"
    INDEX 01 03:55:34
  TRACK 185 AUDIO
    TITLE "LR_black_phrase_S09_185"
    INDEX 01 03:57:19
  TRACK 186 AUDIO
    TITLE "LR_black_phrase_S09_186"
    INDEX 01 03:58:16
  TRACK 187 AUDIO
    TITLE "LR_black_phrase_S09_187"
    INDEX 01 04:00:13
  TRACK 188 AUDIO
    TITLE "LR_black_phrase_S09_188"
    INDEX 01 04:00:48
  TRACK 189 AUDIO
    TITLE "LR_black_phrase_S09_189"
    INDEX 01 04:02:14
  TRACK 190 AUDIO
    TITLE "LR_black_phrase_S09_190"
    INDEX 01 04:02:40
  TRACK 191 AUDIO
    TITLE "LR_black_phrase_S09_191"
    INDEX 01 04:04:07
  TRACK 192 AUDIO
    TITLE "LR_black_phrase_S09_192"
    INDEX 01 04:05:12
  TRACK 193 AUDIO
    TITLE "LR_black_phrase_S09_193"
    INDEX 01 04:06:37
  TRACK 194 AUDIO
    TITLE "LR_black_phrase_S09_194"
    INDEX 01 04:06:71
  TRACK 195 AUDIO
    TITLE "LR_black_phrase_S09_195"
    INDEX 01 04:09:26
  TRACK 196 AUDIO
    TITLE "LR_black_phrase_S09_196"
    INDEX 01 04:10:27
  TRACK 197 AUDIO
    TITLE "LR_black_phrase_S09_197"
    INDEX 01 04:12:03
  TRACK 198 AUDIO
    TITLE "LR_black_phrase_S09_198"
    INDEX 01 04:12:38
  TRACK 199 AUDIO
    TITLE "LR_black_phrase_S09_199"
    INDEX 01 04:14:31
  TRACK 200 AUDIO
    TITLE "LR_black_phrase_S09_200"
    INDEX 01 04:14:51
  TRACK 201 AUDIO
    TITLE "LR_black_phrase_S09_201"
    INDEX 01 04:16:42
